<?xml version="1.0" encoding="utf-8"?>
<!-- Generator: Adobe Illustrator 19.2.1, SVG Export Plug-In . SVG Version: 6.00 Build 0)  -->
<svg version="1.1" id="layer" xmlns="http://www.w3.org/2000/svg" xmlns:xlink="http://www.w3.org/1999/xlink" x="0px" y="0px"
	 viewBox="0 0 652 652" style="enable-background:new 0 0 652 652;" xml:space="preserve">
<style type="text/css">
	.st0{fill:#C50E1F;}
</style>
<g>
	<path class="st0" d="M591.7,312.1c-1.2,0.4-2,0.9-4.8,0.9c-5.8,0-11.3-3.5-10.8-8.6c0.2-2.7,1.1-4.8,3.9-6.5L591.7,312.1
		 M584.9,374.6c-5.6,0-10.3-3.3-9.8-8.3c0.4-4.9,5.6-8.2,11.3-8.2c5.7,0,10.3,3.3,9.8,8.2C595.8,371.3,590.6,374.6,584.9,374.6
		 M500,113.4h156.5l-29,301c-3.7,87.5-75.8,157.3-164.2,157.3l-7.4,0L500,113.4z M570.7,179.1h67.5l2.1-20.3h-39.8
		c-3.1,0-8.2-1-8.2-5.1c0-4.2,4.3-5.3,7-5.3h42l1.9-20.1h-44.6c-13,0-25,5-26,15.5c-0.5,5.1,2.5,11.3,9,15.5l0,0.4h-8.9L570.7,179.1
		z M595.8,280.8c6.2,4.2,10.1,13.2,9.5,18.9c-0.2,1.9-0.7,4.5-1.7,6l-23.4-28.6c-13.4,4.6-22.8,14.3-24,27
		c-1.5,15.8,11,28.8,34.1,28.8c18.6,0,35-12.3,36.6-29.6c1-10.5-0.8-15.5-6.1-24.2L595.8,280.8z M525.4,395.3H583
		c22,0,36.5-12.6,38.1-30.3c1.4-15.3-10.1-29.2-33.2-29.2c-17.3,0-35.7,11-37.1,26.3c-0.5,5.8,0.9,8.5,3.1,12.5h-26.8L525.4,395.3z
		 M637.5,187.8h-67.4l-2,19.9h67.4L637.5,187.8z M564.3,187.8h-21.4l-2,19.9h21.4L564.3,187.8z M634.9,214.5h-93.7l-1.9,19.8H633
		L634.9,214.5z M629.4,271.6l1.9-19.9h-32.2c-9,0-12.7-4.3-12.2-9.4c0.1-1.5,0.2-2.4,0.4-3.2l-24.8-0.1c-0.7,7.5,3.2,12.2,11.4,13.7
		l0,0.2H563l-1.6,18.7H629.4z"/>
	<path class="st0" d="M477.9,156.9l-39.7,413.3c-88.4-15.5-148-61.3-140-147l-0.1-0.2l19-197.3H60.9c-42.2-0.3-76.4-34.7-76.4-77
		c0-42.3,34.1-76.6,76.4-77h340.7c42.4,0.1,76.8,34.5,76.8,77C478.3,151.5,478.1,154.2,477.9,156.9"/>
	<polygon class="st0" points="141.2,242.7 281.7,242.7 254,530.5 113.4,530.5 	"/>
</g>
</svg>
